<?xml version="1.0" encoding="UTF-8" standalone="no"?>
<!-- Created with Inkscape (http://www.inkscape.org/) -->

<svg
   width="50"
   height="30"
   viewBox="0 0 13.229166 7.9375"
   version="1.1"
   id="svg1"
   inkscape:version="1.3 (0e150ed6c4, 2023-07-21)"
   sodipodi:docname="aboutOrbiterSVGclear.svg"
   inkscape:export-filename="newTemplateSVG.png"
   inkscape:export-xdpi="1000"
   inkscape:export-ydpi="1000"
   xmlns:inkscape="http://www.inkscape.org/namespaces/inkscape"
   xmlns:sodipodi="http://sodipodi.sourceforge.net/DTD/sodipodi-0.dtd"
   xmlns="http://www.w3.org/2000/svg"
   xmlns:svg="http://www.w3.org/2000/svg">
  <sodipodi:namedview
     id="namedview1"
     pagecolor="#505050"
     bordercolor="#eeeeee"
     borderopacity="1"
     inkscape:showpageshadow="0"
     inkscape:pageopacity="0"
     inkscape:pagecheckerboard="0"
     inkscape:deskcolor="#2d2d2d"
     inkscape:document-units="mm"
     inkscape:zoom="11.313709"
     inkscape:cx="18.340582"
     inkscape:cy="16.396038"
     inkscape:window-width="1920"
     inkscape:window-height="1017"
     inkscape:window-x="1912"
     inkscape:window-y="-8"
     inkscape:window-maximized="1"
     inkscape:current-layer="layer1"
     showgrid="true" />
  <defs
     id="defs1" />
  <g
     inkscape:label="Layer 1"
     inkscape:groupmode="layer"
     id="layer1">
    <path
       id="rect1"
       style="fill:#f9f9f9;stroke-width:0.264999;stroke-linecap:round;stroke-linejoin:round"
       d="M 10.303247 0.20773937 C 10.303247 0.20773937 10.303246 0.73690603 9.7740804 0.73690603 C 9.7740804 0.73690603 10.303247 0.7369067 10.303247 1.2660727 C 10.303247 1.2660727 10.303246 0.73690603 10.832414 0.73690603 C 10.832414 0.73690603 10.303247 0.73690504 10.303247 0.20773937 z M 0.79374995 0.26458344 C 0.79374995 0.26458344 0.79374935 0.52916678 0.52916662 0.52916678 C 0.52916662 0.52916678 0.79374995 0.52916707 0.79374995 0.79375011 C 0.79374995 0.79375011 0.79374855 0.52916678 1.0583333 0.52916678 C 1.0583333 0.52916678 0.79374995 0.52916638 0.79374995 0.26458344 z M 4.4979166 0.26458344 C 4.4979166 0.26458344 4.497916 0.52916678 4.2333333 0.52916678 C 4.2333333 0.52916678 4.4979166 0.52916707 4.4979166 0.79375011 C 4.4979166 0.79375011 4.4979152 0.52916678 4.7625 0.52916678 C 4.7625 0.52916678 4.4979166 0.52916638 4.4979166 0.26458344 z M 5.8208333 0.26458344 C 5.8208333 0.26458344 5.8208321 0.79375011 5.2916666 0.79375011 C 5.2916666 0.79375011 5.8208333 0.79375076 5.8208333 1.3229168 C 5.8208333 1.3229168 5.8208325 0.79375011 6.35 0.79375011 C 6.35 0.79375011 5.8208333 0.79374911 5.8208333 0.26458344 z M 5.8208333 1.3229168 L 4.7625 1.3229168 L 4.7625 1.5875001 L 4.4979166 1.5875001 L 4.4979166 1.8520834 L 4.7625 1.8520834 L 4.7625 6.6145834 L 8.2020833 6.6145834 L 8.2020833 6.8791668 L 8.4666666 6.8791668 L 8.4666666 6.6145834 L 8.73125 6.6145834 L 8.73125 1.3229168 L 7.4083333 1.3229168 L 7.4083333 1.0583334 L 6.0854166 1.0583334 L 6.0854166 1.3229168 L 5.8208333 1.3229168 z M 8.2020833 6.8791668 L 4.4979166 6.8791668 L 4.4979166 1.8520834 L 4.2333333 1.8520834 L 4.2333333 6.8791668 L 4.2333333 7.1437501 L 4.4979166 7.1437501 L 6.8791666 7.1437501 L 8.2020833 7.1437501 L 8.2020833 6.8791668 z M 6.8791666 7.1437501 C 6.8791666 7.1437501 6.879166 7.4083334 6.6145833 7.4083334 C 6.6145833 7.4083334 6.8791666 7.4083337 6.8791666 7.6729168 C 6.8791666 7.6729168 6.8791652 7.4083334 7.14375 7.4083334 C 7.14375 7.4083334 6.8791666 7.408333 6.8791666 7.1437501 z M 8.2020833 0.26458344 C 8.2020833 0.26458344 8.2020827 0.52916678 7.9375 0.52916678 C 7.9375 0.52916678 8.2020833 0.52916707 8.2020833 0.79375011 C 8.2020833 0.79375011 8.2020819 0.52916678 8.4666666 0.52916678 C 8.4666666 0.52916678 8.2020833 0.52916638 8.2020833 0.26458344 z M 12.170833 0.26458344 C 12.170833 0.26458344 12.170833 0.52916678 11.90625 0.52916678 C 11.90625 0.52916678 12.170833 0.52916707 12.170833 0.79375011 C 12.170833 0.79375011 12.170832 0.52916678 12.435417 0.52916678 C 12.435417 0.52916678 12.170833 0.52916638 12.170833 0.26458344 z M 3.1905029 0.60513113 C 3.1905029 0.60513113 3.1905021 1.1342978 2.6613362 1.1342978 C 2.6613362 1.1342978 3.1905029 1.1342985 3.1905029 1.6634645 C 3.1905029 1.6634645 3.1905021 1.1342978 3.7196695 1.1342978 C 3.7196695 1.1342978 3.1905029 1.1342968 3.1905029 0.60513113 z M 6.35 1.3229168 L 7.14375 1.3229168 L 7.14375 1.5875001 L 6.35 1.5875001 L 6.35 1.3229168 z M 10.363708 1.3229168 A 0.79374951 0.79374951 0 0 1 10.556462 1.6624309 A 0.79374951 0.79374951 0 0 1 10.464994 2.2820314 C 11.643507 2.1755216 12.245247 2.8535727 12.245247 2.8535727 C 12.245247 2.8535727 11.503803 1.5186302 10.363708 1.3229168 z M 9.7699462 1.3389365 A 0.52916664 0.52916664 0 0 0 9.6526407 1.3565065 A 0.52916664 0.52916664 0 0 0 9.2785034 2.0045289 A 0.52916664 0.52916664 0 0 0 9.9265258 2.3791831 A 0.52916664 0.52916664 0 0 0 10.300663 1.7306438 A 0.52916664 0.52916664 0 0 0 9.7699462 1.3389365 z M 5.0270833 1.5875001 L 6.0854166 1.5875001 L 6.0854166 1.8520834 L 7.4083333 1.8520834 L 7.4083333 1.5875001 L 8.4666666 1.5875001 L 8.4666666 6.3500001 L 5.0270833 6.3500001 L 5.0270833 1.5875001 z M 12.7 1.5875001 C 12.7 1.5875001 12.699999 1.8520834 12.435417 1.8520834 C 12.435417 1.8520834 12.7 1.8520837 12.7 2.1166668 C 12.7 2.1166668 12.700001 1.8520834 12.964583 1.8520834 C 12.964583 1.8520834 12.7 1.852083 12.7 1.5875001 z M 1.5875 1.8520834 C 1.5875 1.8520834 1.5874994 2.1166668 1.3229166 2.1166668 C 1.3229166 2.1166668 1.5875 2.1166671 1.5875 2.3812501 C 1.5875 2.3812501 1.5874985 2.1166668 1.8520833 2.1166668 C 1.8520833 2.1166668 1.5875 2.1166664 1.5875 1.8520834 z M 0.79374995 2.1166668 C 0.79374995 2.1166668 0.79374916 2.6458334 0.26458329 2.6458334 C 0.26458329 2.6458334 0.79374995 2.6458341 0.79374995 3.1750001 C 0.79374995 3.1750001 0.79374915 2.6458334 1.3229166 2.6458334 C 1.3229166 2.6458334 0.79374995 2.6458324 0.79374995 2.1166668 z M 5.2916666 2.1166668 L 5.2916666 2.3812501 L 6.8791666 2.3812501 L 6.8791666 2.1166668 L 5.2916666 2.1166668 z M 7.14375 2.1166668 L 7.14375 2.3812501 L 8.2020833 2.3812501 L 8.2020833 2.1166668 L 7.14375 2.1166668 z M 5.2916666 2.6458334 L 5.2916666 2.9104168 L 5.8208333 2.9104168 L 5.8208333 2.6458334 L 5.2916666 2.6458334 z M 6.0854166 2.6458334 L 6.0854166 2.9104168 L 7.14375 2.9104168 L 7.14375 2.6458334 L 6.0854166 2.6458334 z M 7.4083333 2.6458334 L 7.4083333 2.9104168 L 8.2020833 2.9104168 L 8.2020833 2.6458334 L 7.4083333 2.6458334 z M 9.7895833 2.9104168 C 9.7895833 2.9104168 9.7895827 3.1750001 9.525 3.1750001 C 9.525 3.1750001 9.7895833 3.1750004 9.7895833 3.4395834 C 9.7895833 3.4395834 9.7895827 3.1750001 10.054167 3.1750001 C 10.054167 3.1750001 9.7895833 3.1749997 9.7895833 2.9104168 z M 2.9104166 3.1750001 C 2.9104166 3.1750001 2.9104163 3.4395834 2.6458333 3.4395834 C 2.6458333 3.4395834 2.9104166 3.4395837 2.9104166 3.7041668 C 2.9104166 3.7041668 2.9104169 3.4395834 3.175 3.4395834 C 3.175 3.4395834 2.9104165 3.439583 2.9104166 3.1750001 z M 5.2916666 3.1750001 L 5.2916666 3.4395834 L 6.8791666 3.4395834 L 6.8791666 3.1750001 L 5.2916666 3.1750001 z M 7.14375 3.1750001 L 7.14375 3.4395834 L 7.6729166 3.4395834 L 7.6729166 3.1750001 L 7.14375 3.1750001 z M 7.9375 3.1750001 L 7.9375 3.4395834 L 8.2020833 3.4395834 L 8.2020833 3.1750001 L 7.9375 3.1750001 z M 12.398726 3.3827394 C 12.398726 3.3827394 12.398725 3.911906 11.86956 3.911906 C 11.86956 3.911906 12.398726 3.9119067 12.398726 4.4410727 C 12.398726 4.4410727 12.398726 3.911906 12.927893 3.911906 C 12.927893 3.911906 12.398726 3.911905 12.398726 3.3827394 z M 2.1166666 3.7041668 C 2.1166666 3.7041668 2.1166658 4.2333334 1.5875 4.2333334 C 1.5875 4.2333334 2.1166666 4.2333341 2.1166666 4.7625001 C 2.1166666 4.7625001 2.1166658 4.2333334 2.6458333 4.2333334 C 2.6458333 4.2333334 2.1166666 4.2333324 2.1166666 3.7041668 z M 5.2916666 3.7041668 L 5.2916666 3.9687501 L 5.8208333 3.9687501 L 5.8208333 3.7041668 L 5.2916666 3.7041668 z M 6.0854166 3.7041668 L 6.0854166 3.9687501 L 6.35 3.9687501 L 6.35 3.7041668 L 6.0854166 3.7041668 z M 6.6145833 3.7041668 L 6.6145833 3.9687501 L 7.4083333 3.9687501 L 7.4083333 3.7041668 L 6.6145833 3.7041668 z M 7.6729166 3.7041668 L 7.6729166 3.9687501 L 8.2020833 3.9687501 L 8.2020833 3.7041668 L 7.6729166 3.7041668 z M 9.921875 3.8271567 C 9.921875 3.8271567 9.9218738 4.3563234 9.3927083 4.3563234 C 9.3927083 4.3563234 9.921875 4.356324 9.921875 4.88549 C 9.921875 4.88549 9.9218741 4.3563234 10.451042 4.3563234 C 10.451042 4.3563234 9.921875 4.3563224 9.921875 3.8271567 z M 0.52916662 3.9687501 C 0.52916662 3.9687501 0.52916602 4.2333334 0.26458329 4.2333334 C 0.26458329 4.2333334 0.52916662 4.2333337 0.52916662 4.4979168 C 0.52916662 4.4979168 0.52916522 4.2333334 0.79374995 4.2333334 C 0.79374995 4.2333334 0.52916662 4.233333 0.52916662 3.9687501 z M 5.2916666 4.2333334 L 5.2916666 4.4979168 L 6.6145833 4.4979168 L 6.6145833 4.2333334 L 5.2916666 4.2333334 z M 6.8791666 4.2333334 L 6.8791666 4.4979168 L 7.14375 4.4979168 L 7.14375 4.2333334 L 6.8791666 4.2333334 z M 7.4083333 4.2333334 L 7.4083333 4.4979168 L 8.2020833 4.4979168 L 8.2020833 4.2333334 L 7.4083333 4.2333334 z M 11.377083 4.2333334 C 11.377083 4.2333334 11.377083 4.4979168 11.1125 4.4979168 C 11.1125 4.4979168 11.377083 4.4979171 11.377083 4.7625001 C 11.377083 4.7625001 11.377083 4.4979168 11.641667 4.4979168 C 11.641667 4.4979168 11.377083 4.4979164 11.377083 4.2333334 z M 3.4395833 4.7625001 C 3.4395833 4.7625001 3.439583 5.0270834 3.175 5.0270834 C 3.175 5.0270834 3.4395833 5.0270837 3.4395833 5.2916668 C 3.4395833 5.2916668 3.4395836 5.0270834 3.7041666 5.0270834 C 3.7041666 5.0270834 3.4395832 5.027083 3.4395833 4.7625001 z M 5.2916666 4.7625001 L 5.2916666 5.0270834 L 5.55625 5.0270834 L 5.55625 4.7625001 L 5.2916666 4.7625001 z M 5.8208333 4.7625001 L 5.8208333 5.0270834 L 6.35 5.0270834 L 6.35 4.7625001 L 5.8208333 4.7625001 z M 6.6145833 4.7625001 L 6.6145833 5.0270834 L 8.2020833 5.0270834 L 8.2020833 4.7625001 L 6.6145833 4.7625001 z M 1.0583333 5.0270834 C 1.0583333 5.0270834 1.4288413 6.508215 2.4794352 6.9923382 A 0.79374951 0.79374951 0 0 1 2.38125 6.6145834 A 0.79374951 0.79374951 0 0 1 2.6298136 6.0399415 C 1.4638913 5.8378005 1.0583333 5.0270834 1.0583333 5.0270834 z M 5.2916666 5.2916668 L 5.2916666 5.5562501 L 6.35 5.5562501 L 6.35 5.2916668 L 5.2916666 5.2916668 z M 6.6145833 5.2916668 L 6.6145833 5.5562501 L 6.8791666 5.5562501 L 6.8791666 5.2916668 L 6.6145833 5.2916668 z M 7.14375 5.2916668 L 7.14375 5.5562501 L 8.2020833 5.5562501 L 8.2020833 5.2916668 L 7.14375 5.2916668 z M 11.1125 5.2916668 C 11.1125 5.2916668 11.112499 5.8208334 10.583333 5.8208334 C 10.583333 5.8208334 11.1125 5.8208341 11.1125 6.3500001 C 11.1125 6.3500001 11.112499 5.8208334 11.641667 5.8208334 C 11.641667 5.8208334 11.1125 5.8208324 11.1125 5.2916668 z M 0.79374995 5.8208334 C 0.79374995 5.8208334 0.79374916 6.3500001 0.26458329 6.3500001 C 0.26458329 6.3500001 0.79374995 6.3500008 0.79374995 6.8791668 C 0.79374995 6.8791668 0.79374915 6.3500001 1.3229166 6.3500001 C 1.3229166 6.3500001 0.79374995 6.3499991 0.79374995 5.8208334 z M 5.2916666 5.8208334 L 5.2916666 6.0854168 L 5.8208333 6.0854168 L 5.8208333 5.8208334 L 5.2916666 5.8208334 z M 6.0854166 5.8208334 L 6.0854166 6.0854168 L 7.14375 6.0854168 L 7.14375 5.8208334 L 6.0854166 5.8208334 z M 7.4083333 5.8208334 L 7.4083333 6.0854168 L 8.2020833 6.0854168 L 8.2020833 5.8208334 L 7.4083333 5.8208334 z M 3.175 6.0854168 A 0.52916664 0.52916664 0 0 0 2.6458333 6.6145834 A 0.52916664 0.52916664 0 0 0 3.175 7.1437501 A 0.52916664 0.52916664 0 0 0 3.7041666 6.6145834 A 0.52916664 0.52916664 0 0 0 3.175 6.0854168 z M 9.7895833 6.0854168 C 9.7895833 6.0854168 9.789583 6.3500001 9.525 6.3500001 C 9.525 6.3500001 9.7895833 6.3500004 9.7895833 6.6145834 C 9.7895833 6.6145834 9.7895832 6.3500001 10.054167 6.3500001 C 10.054167 6.3500001 9.7895832 6.3499997 9.7895833 6.0854168 z M 12.435417 6.0854168 C 12.435417 6.0854168 12.435416 6.3500001 12.170833 6.3500001 C 12.170833 6.3500001 12.435417 6.3500004 12.435417 6.6145834 C 12.435417 6.6145834 12.435415 6.3500001 12.7 6.3500001 C 12.7 6.3500001 12.435417 6.3499997 12.435417 6.0854168 z M 8.9958333 6.8171551 C 8.9958333 6.8171551 8.9958325 7.3463217 8.4666666 7.3463217 C 8.4666666 7.3463217 8.9958333 7.3463224 8.9958333 7.8754884 C 8.9958333 7.8754884 8.9958325 7.3463217 9.525 7.3463217 C 9.525 7.3463217 8.9958333 7.3463207 8.9958333 6.8171551 z M 1.5875 6.8791668 C 1.5875 6.8791668 1.5874994 7.1437501 1.3229166 7.1437501 C 1.3229166 7.1437501 1.5875 7.1437504 1.5875 7.4083334 C 1.5875 7.4083334 1.5874985 7.1437501 1.8520833 7.1437501 C 1.8520833 7.1437501 1.5875 7.1437497 1.5875 6.8791668 z M 11.377083 6.8791668 C 11.377083 6.8791668 11.377083 7.1437501 11.1125 7.1437501 C 11.1125 7.1437501 11.377083 7.1437504 11.377083 7.4083334 C 11.377083 7.4083334 11.377082 7.1437501 11.641667 7.1437501 C 11.641667 7.1437501 11.377083 7.1437497 11.377083 6.8791668 z M 5.0270833 7.4083334 C 5.0270833 7.4083334 5.027083 7.6729168 4.7625 7.6729168 C 4.7625 7.6729168 5.0270833 7.6729171 5.0270833 7.9375001 C 5.0270833 7.9375001 5.0270836 7.6729168 5.2916666 7.6729168 C 5.2916666 7.6729168 5.0270832 7.6729164 5.0270833 7.4083334 z " />
  </g>
</svg>
