<?xml version="1.0" encoding="UTF-8" standalone="no"?>
<!-- Created with Inkscape (http://www.inkscape.org/) -->

<svg
   width="50"
   height="30"
   viewBox="0 0 13.229166 7.9375"
   version="1.1"
   id="svg1"
   inkscape:version="1.3 (0e150ed6c4, 2023-07-21)"
   sodipodi:docname="newTemplateSVGclear.svg"
   inkscape:export-filename="newTemplateSVG.png"
   inkscape:export-xdpi="1000"
   inkscape:export-ydpi="1000"
   xmlns:inkscape="http://www.inkscape.org/namespaces/inkscape"
   xmlns:sodipodi="http://sodipodi.sourceforge.net/DTD/sodipodi-0.dtd"
   xmlns="http://www.w3.org/2000/svg"
   xmlns:svg="http://www.w3.org/2000/svg">
  <sodipodi:namedview
     id="namedview1"
     pagecolor="#505050"
     bordercolor="#eeeeee"
     borderopacity="1"
     inkscape:showpageshadow="0"
     inkscape:pageopacity="0"
     inkscape:pagecheckerboard="0"
     inkscape:deskcolor="#2d2d2d"
     inkscape:document-units="mm"
     inkscape:zoom="11.103591"
     inkscape:cx="14.319691"
     inkscape:cy="15.985819"
     inkscape:window-width="1920"
     inkscape:window-height="1017"
     inkscape:window-x="1912"
     inkscape:window-y="-8"
     inkscape:window-maximized="1"
     inkscape:current-layer="layer1"
     showgrid="true" />
  <defs
     id="defs1" />
  <g
     inkscape:label="Layer 1"
     inkscape:groupmode="layer"
     id="layer1">
    <path
       id="ellipse3"
       style="fill:#ffffff;fill-opacity:1;stroke-width:0.264999;stroke-linecap:round;stroke-linejoin:round"
       d="M 11.1125 0 C 11.1125 0 11.112499 0.26458323 10.847917 0.26458333 C 10.847917 0.26458333 11.1125 0.26458353 11.1125 0.52916667 C 11.1125 0.52916667 11.112501 0.26458333 11.377083 0.26458333 C 11.377083 0.26458333 11.1125 0.26458304 11.1125 0 z M 12.435417 0.34881592 C 12.435417 0.34881592 12.435416 0.87798258 11.90625 0.87798258 C 11.90625 0.87798258 12.435417 0.87798306 12.435417 1.4071493 C 12.435417 1.4071493 12.435418 0.87798258 12.964583 0.87798258 C 12.964583 0.87798258 12.435417 0.87798199 12.435417 0.34881592 z M 4.0276611 0.79426676 C 3.8094815 0.7895313 3.5874708 0.81195006 3.3651693 0.86402995 C 1.9424392 1.1973414 1.0588515 2.6209508 1.3921631 4.0436808 C 1.4162001 4.1395737 1.4459178 4.2342651 1.4805298 4.3268677 C 2.1665099 4.3143871 3.0905731 4.1892581 4.0891561 3.9553141 C 5.0877391 3.7213702 5.9711881 3.4230367 6.5913289 3.1295247 C 6.5812095 3.0311835 6.5653571 2.9331116 6.5443034 2.8365194 C 6.2630721 1.636091 5.2058311 0.81983829 4.0276611 0.79426676 z M 10.31875 1.0583333 C 10.31875 1.0583333 10.318749 1.3229166 10.054167 1.3229167 C 10.054167 1.3229167 10.31875 1.3229169 10.31875 1.5875 C 10.31875 1.5875 10.318751 1.3229167 10.583333 1.3229167 C 10.583333 1.3229167 10.31875 1.3229164 10.31875 1.0583333 z M 9.2604167 1.3229167 C 9.2604167 1.3229167 9.2604165 1.8520833 8.73125 1.8520833 C 8.73125 1.8520833 9.2604167 1.8520838 9.2604167 2.38125 C 9.2604167 2.38125 9.2604179 1.8520833 9.7895833 1.8520833 C 9.7895833 1.8520833 9.2604167 1.8520827 9.2604167 1.3229167 z M 6.5039958 2.0706746 C 6.5467477 2.1436446 6.5862842 2.2191662 6.6228516 2.2965007 A 0.79374993 3.7041667 76.81477 0 1 7.5752482 2.5951904 A 0.79374993 3.7041667 76.81477 0 1 4.1496175 4.2131795 A 0.79374993 3.7041667 76.81477 0 1 0.36173503 4.2850098 A 0.79374993 3.7041667 76.81477 0 1 1.0821045 3.5966797 C 1.0804545 3.5113158 1.0825047 3.4261242 1.0883057 3.3419149 A 1.0583333 3.96875 76.81477 0 0 0.10438639 4.3454712 A 1.0583333 3.96875 76.81477 0 0 4.2100789 4.4705282 A 1.0583333 3.96875 76.81477 0 0 7.8325968 2.534729 A 1.0583333 3.96875 76.81477 0 0 6.5039958 2.0706746 z M 12.170833 2.1166667 C 12.170833 2.1166667 12.170833 2.3812499 11.90625 2.38125 C 11.90625 2.38125 12.170833 2.3812502 12.170833 2.6458333 C 12.170833 2.6458333 12.170834 2.38125 12.435417 2.38125 C 12.435417 2.38125 12.170833 2.3812497 12.170833 2.1166667 z M 10.583333 2.2489583 C 10.583333 2.2489583 10.583333 2.778125 10.054167 2.778125 C 10.054167 2.778125 10.583333 2.7781255 10.583333 3.3072917 C 10.583333 3.3072917 10.583335 2.778125 11.1125 2.778125 C 11.1125 2.778125 10.583333 2.7781244 10.583333 2.2489583 z M 12.435417 2.9104167 C 12.435417 2.9104167 12.435416 3.4395833 11.90625 3.4395833 C 11.90625 3.4395833 12.435417 3.4395838 12.435417 3.96875 C 12.435417 3.96875 12.435418 3.4395833 12.964583 3.4395833 C 12.964583 3.4395833 12.435417 3.4395827 12.435417 2.9104167 z M 8.73125 3.175 C 8.73125 3.175 8.7312497 3.4395832 8.4666667 3.4395833 C 8.4666667 3.4395833 8.73125 3.4395835 8.73125 3.7041667 C 8.73125 3.7041667 8.7312503 3.4395833 8.9958333 3.4395833 C 8.9958333 3.4395833 8.73125 3.439583 8.73125 3.175 z M 10.715625 3.7041667 A 1.984375 1.984375 0 0 0 8.73125 5.6885417 A 1.984375 1.984375 0 0 0 10.715625 7.6729167 A 1.984375 1.984375 0 0 0 12.7 5.6885417 A 1.984375 1.984375 0 0 0 10.715625 3.7041667 z M 7.4083333 3.96875 C 7.4083333 3.96875 7.4083327 4.4979167 6.8791667 4.4979167 C 6.8791667 4.4979167 7.4083332 4.4979172 7.4083333 5.0270833 C 7.4083333 5.0270833 7.4083338 4.4979167 7.9375 4.4979167 C 7.9375 4.4979167 7.4083333 4.4979161 7.4083333 3.96875 z M 6.5556722 3.9692668 C 5.9169783 4.2630986 5.1141733 4.5299403 4.2700236 4.7283936 C 3.4255677 4.9255399 2.5884171 5.0428221 1.885673 5.0632568 C 2.397098 5.7210655 3.1906684 6.1000231 4.0209432 6.0848999 C 4.0940831 6.0835699 4.1675511 6.078973 4.2410848 6.071464 C 4.2752678 6.067974 4.3091897 6.0633959 4.3434041 6.0585449 C 4.3483741 6.0578404 4.3534163 6.0572079 4.3583903 6.0564779 C 4.3928063 6.0513979 4.4273328 6.0458946 4.4617432 6.0394246 C 4.4985381 6.0324946 4.5350678 6.0247072 4.571814 6.0161702 C 4.6085279 6.0074903 4.644809 5.998402 4.6808512 5.988265 C 4.7145542 5.978775 4.7480128 5.9685169 4.7811035 5.9577759 C 4.7858935 5.9562259 4.7907859 5.9541882 4.7955729 5.9526082 C 4.8283819 5.9417582 4.8610654 5.9305608 4.8932414 5.9185018 C 4.9624603 5.8925698 5.0302092 5.8640119 5.0963298 5.8327189 C 5.8469251 5.4774861 6.3896466 4.7857858 6.5556722 3.9692668 z M 6.35 5.2916667 C 6.35 5.2916667 6.3499994 5.5562499 6.0854167 5.55625 C 6.0854167 5.55625 6.35 5.5562502 6.35 5.8208333 C 6.35 5.8208333 6.3500006 5.55625 6.6145833 5.55625 C 6.6145833 5.55625 6.35 5.5562497 6.35 5.2916667 z M 7.9375 5.55625 C 7.9375 5.55625 7.9374997 5.8208332 7.6729167 5.8208333 C 7.6729167 5.8208333 7.9375 5.8208335 7.9375 6.0854167 C 7.9375 6.0854167 7.9375003 5.8208333 8.2020833 5.8208333 C 8.2020833 5.8208333 7.9375 5.820833 7.9375 5.55625 z M 4.7625 6.0854167 C 4.7625 6.0854167 4.7624994 6.6145833 4.2333333 6.6145833 C 4.2333333 6.6145833 4.7624999 6.6145838 4.7625 7.14375 C 4.7625 7.14375 4.7625005 6.6145833 5.2916667 6.6145833 C 5.2916667 6.6145833 4.7625 6.6145827 4.7625 6.0854167 z M 6.0854167 6.6145833 C 6.0854167 6.6145833 6.0854161 6.8791666 5.8208333 6.8791667 C 5.8208333 6.8791667 6.0854167 6.8791669 6.0854167 7.14375 C 6.0854167 7.14375 6.0854173 6.8791667 6.35 6.8791667 C 6.35 6.8791667 6.0854167 6.8791664 6.0854167 6.6145833 z M 7.2651896 6.6145833 C 7.2651896 6.6145833 7.265189 7.14375 6.7360229 7.14375 C 6.7360229 7.14375 7.2651895 7.1437505 7.2651896 7.6729167 C 7.2651896 7.6729167 7.2651901 7.14375 7.7943563 7.14375 C 7.7943563 7.14375 7.2651896 7.1437494 7.2651896 6.6145833 z M 12.7 6.8791667 C 12.7 6.8791667 12.699999 7.1437499 12.435417 7.14375 C 12.435417 7.14375 12.7 7.1437502 12.7 7.4083333 C 12.7 7.4083333 12.700001 7.14375 12.964583 7.14375 C 12.964583 7.14375 12.7 7.1437497 12.7 6.8791667 z M 3.96875 7.14375 C 3.96875 7.14375 3.9687494 7.4083332 3.7041667 7.4083333 C 3.7041667 7.4083333 3.96875 7.4083335 3.96875 7.6729167 C 3.96875 7.6729167 3.9687506 7.4083333 4.2333333 7.4083333 C 4.2333333 7.4083333 3.96875 7.408333 3.96875 7.14375 z M 8.73125 7.14375 C 8.73125 7.14375 8.7312494 7.4083332 8.4666667 7.4083333 C 8.4666667 7.4083333 8.73125 7.4083335 8.73125 7.6729167 C 8.73125 7.6729167 8.7312506 7.4083333 8.9958333 7.4083333 C 8.9958333 7.4083333 8.73125 7.408333 8.73125 7.14375 z M 5.2916667 7.4083333 C 5.2916667 7.4083333 5.2916661 7.6729166 5.0270833 7.6729167 C 5.0270833 7.6729167 5.2916667 7.6729169 5.2916667 7.9375 C 5.2916667 7.9375 5.2916673 7.6729167 5.55625 7.6729167 C 5.55625 7.6729167 5.2916667 7.6729164 5.2916667 7.4083333 z " />
  </g>
</svg>
