<?xml version="1.0" encoding="UTF-8" standalone="no"?>
<!-- Created with Inkscape (http://www.inkscape.org/) -->

<svg
   width="50"
   height="30"
   viewBox="0 0 13.229166 7.9375"
   version="1.1"
   id="svg1"
   inkscape:version="1.3 (0e150ed6c4, 2023-07-21)"
   sodipodi:docname="savedTemplatesSVGclear.svg"
   inkscape:export-filename="newTemplateSVG.png"
   inkscape:export-xdpi="1000"
   inkscape:export-ydpi="1000"
   xmlns:inkscape="http://www.inkscape.org/namespaces/inkscape"
   xmlns:sodipodi="http://sodipodi.sourceforge.net/DTD/sodipodi-0.dtd"
   xmlns="http://www.w3.org/2000/svg"
   xmlns:svg="http://www.w3.org/2000/svg">
  <sodipodi:namedview
     id="namedview1"
     pagecolor="#505050"
     bordercolor="#eeeeee"
     borderopacity="1"
     inkscape:showpageshadow="0"
     inkscape:pageopacity="0"
     inkscape:pagecheckerboard="0"
     inkscape:deskcolor="#2d2d2d"
     inkscape:document-units="mm"
     inkscape:zoom="5.6568543"
     inkscape:cx="0"
     inkscape:cy="23.069359"
     inkscape:window-width="1920"
     inkscape:window-height="1017"
     inkscape:window-x="1912"
     inkscape:window-y="-8"
     inkscape:window-maximized="1"
     inkscape:current-layer="layer1"
     showgrid="true" />
  <defs
     id="defs1" />
  <g
     inkscape:label="Layer 1"
     inkscape:groupmode="layer"
     id="layer1">
    <path
       id="path20"
       style="fill:#ffffff;fill-opacity:1;stroke:none;stroke-width:0.264999;stroke-linecap:round;stroke-linejoin:round"
       d="M 7.0114583 0.26458333 A 0.13229166 0.13229166 0 0 0 6.8791667 0.396875 A 0.13229166 0.13229166 0 0 0 7.0114583 0.52916667 A 0.13229166 0.13229166 0 0 0 7.14375 0.396875 A 0.13229166 0.13229166 0 0 0 7.0114583 0.26458333 z M 7.540625 0.26458333 A 0.13229166 0.13229166 0 0 0 7.4083333 0.396875 A 0.13229166 0.13229166 0 0 0 7.540625 0.52916667 A 0.13229166 0.13229166 0 0 0 7.6729167 0.396875 A 0.13229166 0.13229166 0 0 0 7.540625 0.26458333 z M 8.0697917 0.26458333 A 0.13229166 0.13229166 0 0 0 7.9375 0.396875 A 0.13229166 0.13229166 0 0 0 8.0697917 0.52916667 A 0.13229166 0.13229166 0 0 0 8.2020833 0.396875 A 0.13229166 0.13229166 0 0 0 8.0697917 0.26458333 z M 8.5989583 0.26458333 A 0.13229166 0.13229166 0 0 0 8.4666667 0.396875 A 0.13229166 0.13229166 0 0 0 8.5989583 0.52916667 A 0.13229166 0.13229166 0 0 0 8.73125 0.396875 A 0.13229166 0.13229166 0 0 0 8.5989583 0.26458333 z M 9.128125 0.26458333 A 0.13229166 0.13229166 0 0 0 8.9958333 0.396875 A 0.13229166 0.13229166 0 0 0 9.128125 0.52916667 A 0.13229166 0.13229166 0 0 0 9.2604167 0.396875 A 0.13229166 0.13229166 0 0 0 9.128125 0.26458333 z M 9.6572917 0.26458333 A 0.13229166 0.13229166 0 0 0 9.525 0.396875 A 0.13229166 0.13229166 0 0 0 9.6572917 0.52916667 A 0.13229166 0.13229166 0 0 0 9.7895833 0.396875 A 0.13229166 0.13229166 0 0 0 9.6572917 0.26458333 z M 10.186458 0.26458333 A 0.13229166 0.13229166 0 0 0 10.054167 0.396875 A 0.13229166 0.13229166 0 0 0 10.186458 0.52916667 A 0.13229166 0.13229166 0 0 0 10.31875 0.396875 A 0.13229166 0.13229166 0 0 0 10.186458 0.26458333 z M 10.715625 0.26458333 A 0.13229166 0.13229166 0 0 0 10.583333 0.396875 A 0.13229166 0.13229166 0 0 0 10.715625 0.52916667 A 0.13229166 0.13229166 0 0 0 10.847917 0.396875 A 0.13229166 0.13229166 0 0 0 10.715625 0.26458333 z M 11.244792 0.26458333 A 0.13229166 0.13229166 0 0 0 11.1125 0.396875 A 0.13229166 0.13229166 0 0 0 11.244792 0.52916667 A 0.13229166 0.13229166 0 0 0 11.377083 0.396875 A 0.13229166 0.13229166 0 0 0 11.244792 0.26458333 z M 11.773958 0.26458333 A 0.13229166 0.13229166 0 0 0 11.641667 0.396875 A 0.13229166 0.13229166 0 0 0 11.773958 0.52916667 A 0.13229166 0.13229166 0 0 0 11.90625 0.396875 A 0.13229166 0.13229166 0 0 0 11.773958 0.26458333 z M 12.303125 0.26458333 A 0.13229166 0.13229166 0 0 0 12.170833 0.396875 A 0.13229166 0.13229166 0 0 0 12.303125 0.52916667 A 0.13229166 0.13229166 0 0 0 12.435417 0.396875 A 0.13229166 0.13229166 0 0 0 12.303125 0.26458333 z M 12.832292 0.26458333 A 0.13229166 0.13229166 0 0 0 12.7 0.396875 A 0.13229166 0.13229166 0 0 0 12.832292 0.52916667 A 0.13229166 0.13229166 0 0 0 12.964583 0.396875 A 0.13229166 0.13229166 0 0 0 12.832292 0.26458333 z M 0.79375 0.52916667 L 0.79375 0.79375 L 6.6145833 0.79375 L 6.6145833 0.52916667 L 0.79375 0.52916667 z M 12.7 0.6764445 L 10.784355 0.76119385 C 11.144006 1.0078741 11.358974 1.4159636 11.358997 1.8520833 C 11.358368 2.0934625 11.291707 2.3300701 11.166243 2.5362793 L 12.7 1.9016927 L 12.7 1.4552083 L 12.7 0.92604167 L 12.7 0.6764445 z M 12.7 0.92604167 A 0.13229166 0.13229166 0 0 0 12.832292 1.0583333 A 0.13229166 0.13229166 0 0 0 12.964583 0.92604167 A 0.13229166 0.13229166 0 0 0 12.832292 0.79375 A 0.13229166 0.13229166 0 0 0 12.7 0.92604167 z M 12.7 1.4552083 A 0.13229166 0.13229166 0 0 0 12.832292 1.5875 A 0.13229166 0.13229166 0 0 0 12.964583 1.4552083 A 0.13229166 0.13229166 0 0 0 12.832292 1.3229167 A 0.13229166 0.13229166 0 0 0 12.7 1.4552083 z M 7.0114583 0.79375 A 0.13229166 0.13229166 0 0 0 6.8791667 0.92604167 A 0.13229166 0.13229166 0 0 0 7.0114583 1.0583333 A 0.13229166 0.13229166 0 0 0 7.14375 0.92604167 A 0.13229166 0.13229166 0 0 0 7.0114583 0.79375 z M 10.054167 0.79375 A 1.0583333 1.0583333 0 0 0 9.1400106 1.3234334 A 0.92604172 0.92604154 0 0 1 10.054167 2.2489583 A 0.92604172 0.92604154 0 0 1 9.8050863 2.8783773 A 1.0583333 1.0583333 0 0 0 10.054167 2.9104167 A 1.0583333 1.0583333 0 0 0 11.1125 1.8520833 A 1.0583333 1.0583333 0 0 0 10.054167 0.79375 z M 3.96875 1.0583333 L 3.96875 1.3229167 L 4.4979167 1.3229167 L 4.4979167 1.0583333 L 3.96875 1.0583333 z M 4.7625 1.0583333 L 4.7625 1.3229167 L 5.2916667 1.3229167 L 5.2916667 1.0583333 L 4.7625 1.0583333 z M 5.55625 1.0583333 L 5.55625 1.3229167 L 6.6145833 1.3229167 L 6.6145833 1.0583333 L 5.55625 1.0583333 z M 7.0114583 1.3229167 A 0.13229166 0.13229166 0 0 0 6.8791667 1.4552083 A 0.13229166 0.13229166 0 0 0 7.0114583 1.5875 A 0.13229166 0.13229166 0 0 0 7.14375 1.4552083 A 0.13229166 0.13229166 0 0 0 7.0114583 1.3229167 z M 9.128125 1.5875 A 0.66145831 0.66145825 0 0 0 8.4666667 2.2489583 A 0.66145831 0.66145825 0 0 0 9.128125 2.9104167 A 0.66145831 0.66145825 0 0 0 9.7895833 2.2489583 A 0.66145831 0.66145825 0 0 0 9.128125 1.5875 z M 7.0114583 1.8520833 A 0.13229166 0.13229166 0 0 0 6.8791667 1.984375 A 0.13229166 0.13229166 0 0 0 7.0114583 2.1166667 A 0.13229166 0.13229166 0 0 0 7.14375 1.984375 A 0.13229166 0.13229166 0 0 0 7.0114583 1.8520833 z M 12.832292 1.8520833 A 0.13229166 0.13229166 0 0 0 12.7 1.984375 A 0.13229166 0.13229166 0 0 0 12.832292 2.1166667 A 0.13229166 0.13229166 0 0 0 12.964583 1.984375 A 0.13229166 0.13229166 0 0 0 12.832292 1.8520833 z M 0.26458333 2.1166667 L 0.26458333 2.38125 L 1.5875 2.38125 L 1.5875 2.1166667 L 0.26458333 2.1166667 z M 1.8520833 2.1166667 L 1.8520833 2.38125 L 2.38125 2.38125 L 2.38125 2.1166667 L 1.8520833 2.1166667 z M 2.6458333 2.1166667 L 2.6458333 2.38125 L 3.7041667 2.38125 L 3.7041667 2.1166667 L 2.6458333 2.1166667 z M 3.96875 2.1166667 L 3.96875 2.38125 L 4.2333333 2.38125 L 4.2333333 2.1166667 L 3.96875 2.1166667 z M 4.4979167 2.1166667 L 4.4979167 2.38125 L 6.6145833 2.38125 L 6.6145833 2.1166667 L 4.4979167 2.1166667 z M 8.2062174 2.192631 L 7.14375 3.1563965 L 7.14375 3.4395833 L 7.540625 3.4395833 A 0.13229166 0.13229166 0 0 0 7.4083333 3.571875 A 0.13229166 0.13229166 0 0 0 7.540625 3.7041667 A 0.13229166 0.13229166 0 0 0 7.6729167 3.571875 A 0.13229166 0.13229166 0 0 0 7.5473429 3.4395833 L 7.9214803 3.4395833 L 8.7710409 3.1016195 C 8.4270329 2.9578515 8.2027942 2.621799 8.2020833 2.2489583 C 8.2028883 2.2301449 8.204267 2.2113604 8.2062174 2.192631 z M 7.0114583 2.38125 A 0.13229166 0.13229166 0 0 0 6.8791667 2.5135417 A 0.13229166 0.13229166 0 0 0 7.0114583 2.6458333 A 0.13229166 0.13229166 0 0 0 7.14375 2.5135417 A 0.13229166 0.13229166 0 0 0 7.0114583 2.38125 z M 12.832292 2.38125 A 0.13229166 0.13229166 0 0 0 12.7 2.5135417 A 0.13229166 0.13229166 0 0 0 12.832292 2.6458333 A 0.13229166 0.13229166 0 0 0 12.964583 2.5135417 A 0.13229166 0.13229166 0 0 0 12.832292 2.38125 z M 0.26458333 2.6458333 L 0.26458333 2.9104167 L 0.52916667 2.9104167 L 0.52916667 2.6458333 L 0.26458333 2.6458333 z M 0.79375 2.6458333 L 0.79375 2.9104167 L 1.3229167 2.9104167 L 1.3229167 2.6458333 L 0.79375 2.6458333 z M 1.5875 2.6458333 L 1.5875 2.9104167 L 3.4395833 2.9104167 L 3.4395833 2.6458333 L 1.5875 2.6458333 z M 3.7041667 2.6458333 L 3.7041667 2.9104167 L 4.4979167 2.9104167 L 4.4979167 2.6458333 L 3.7041667 2.6458333 z M 4.7625 2.6458333 L 4.7625 2.9104167 L 5.0270833 2.9104167 L 5.0270833 2.6458333 L 4.7625 2.6458333 z M 5.2916667 2.6458333 L 5.2916667 2.9104167 L 5.8208333 2.9104167 L 5.8208333 2.6458333 L 5.2916667 2.6458333 z M 6.0854167 2.6458333 L 6.0854167 2.9104167 L 6.6145833 2.9104167 L 6.6145833 2.6458333 L 6.0854167 2.6458333 z M 7.0114583 2.9104167 A 0.13229166 0.13229166 0 0 0 6.8791667 3.0427083 A 0.13229166 0.13229166 0 0 0 7.0114583 3.175 A 0.13229166 0.13229166 0 0 0 7.14375 3.0427083 A 0.13229166 0.13229166 0 0 0 7.0114583 2.9104167 z M 12.832292 2.9104167 A 0.13229166 0.13229166 0 0 0 12.7 3.0427083 A 0.13229166 0.13229166 0 0 0 12.832292 3.175 A 0.13229166 0.13229166 0 0 0 12.964583 3.0427083 A 0.13229166 0.13229166 0 0 0 12.832292 2.9104167 z M 0.26458333 3.175 L 0.26458333 3.4395833 L 1.8520833 3.4395833 L 1.8520833 3.175 L 0.26458333 3.175 z M 2.1166667 3.175 L 2.1166667 3.4395833 L 2.6458333 3.4395833 L 2.6458333 3.175 L 2.1166667 3.175 z M 2.9104167 3.175 L 2.9104167 3.4395833 L 3.175 3.4395833 L 3.175 3.175 L 2.9104167 3.175 z M 3.4395833 3.175 L 3.4395833 3.4395833 L 4.2333333 3.4395833 L 4.2333333 3.175 L 3.4395833 3.175 z M 4.4979167 3.175 L 4.4979167 3.4395833 L 5.2916667 3.4395833 L 5.2916667 3.175 L 4.4979167 3.175 z M 5.55625 3.175 L 5.55625 3.4395833 L 6.6145833 3.4395833 L 6.6145833 3.175 L 5.55625 3.175 z M 7.0114583 3.4395833 A 0.13229166 0.13229166 0 0 0 6.8791667 3.571875 A 0.13229166 0.13229166 0 0 0 7.0114583 3.7041667 A 0.13229166 0.13229166 0 0 0 7.14375 3.571875 A 0.13229166 0.13229166 0 0 0 7.0114583 3.4395833 z M 8.0697917 3.4395833 A 0.13229166 0.13229166 0 0 0 7.9375 3.571875 A 0.13229166 0.13229166 0 0 0 8.0697917 3.7041667 A 0.13229166 0.13229166 0 0 0 8.2020833 3.571875 A 0.13229166 0.13229166 0 0 0 8.0697917 3.4395833 z M 8.5989583 3.4395833 A 0.13229166 0.13229166 0 0 0 8.4666667 3.571875 A 0.13229166 0.13229166 0 0 0 8.5989583 3.7041667 A 0.13229166 0.13229166 0 0 0 8.73125 3.571875 A 0.13229166 0.13229166 0 0 0 8.5989583 3.4395833 z M 9.128125 3.4395833 A 0.13229166 0.13229166 0 0 0 8.9958333 3.571875 A 0.13229166 0.13229166 0 0 0 9.128125 3.7041667 A 0.13229166 0.13229166 0 0 0 9.2604167 3.571875 A 0.13229166 0.13229166 0 0 0 9.128125 3.4395833 z M 9.6572917 3.4395833 A 0.13229166 0.13229166 0 0 0 9.525 3.571875 A 0.13229166 0.13229166 0 0 0 9.6572917 3.7041667 A 0.13229166 0.13229166 0 0 0 9.7895833 3.571875 A 0.13229166 0.13229166 0 0 0 9.6572917 3.4395833 z M 10.186458 3.4395833 A 0.13229166 0.13229166 0 0 0 10.054167 3.571875 A 0.13229166 0.13229166 0 0 0 10.186458 3.7041667 A 0.13229166 0.13229166 0 0 0 10.31875 3.571875 A 0.13229166 0.13229166 0 0 0 10.186458 3.4395833 z M 10.715625 3.4395833 A 0.13229166 0.13229166 0 0 0 10.583333 3.571875 A 0.13229166 0.13229166 0 0 0 10.715625 3.7041667 A 0.13229166 0.13229166 0 0 0 10.847917 3.571875 A 0.13229166 0.13229166 0 0 0 10.715625 3.4395833 z M 11.244792 3.4395833 A 0.13229166 0.13229166 0 0 0 11.1125 3.571875 A 0.13229166 0.13229166 0 0 0 11.244792 3.7041667 A 0.13229166 0.13229166 0 0 0 11.377083 3.571875 A 0.13229166 0.13229166 0 0 0 11.244792 3.4395833 z M 11.773958 3.4395833 A 0.13229166 0.13229166 0 0 0 11.641667 3.571875 A 0.13229166 0.13229166 0 0 0 11.773958 3.7041667 A 0.13229166 0.13229166 0 0 0 11.90625 3.571875 A 0.13229166 0.13229166 0 0 0 11.773958 3.4395833 z M 12.303125 3.4395833 A 0.13229166 0.13229166 0 0 0 12.170833 3.571875 A 0.13229166 0.13229166 0 0 0 12.303125 3.7041667 A 0.13229166 0.13229166 0 0 0 12.435417 3.571875 A 0.13229166 0.13229166 0 0 0 12.303125 3.4395833 z M 12.832292 3.4395833 A 0.13229166 0.13229166 0 0 0 12.7 3.571875 A 0.13229166 0.13229166 0 0 0 12.832292 3.7041667 A 0.13229166 0.13229166 0 0 0 12.964583 3.571875 A 0.13229166 0.13229166 0 0 0 12.832292 3.4395833 z M 7.0114583 4.2333333 A 0.13229166 0.13229166 0 0 0 6.8791667 4.365625 A 0.13229166 0.13229166 0 0 0 7.0114583 4.4979167 A 0.13229166 0.13229166 0 0 0 7.14375 4.365625 A 0.13229166 0.13229166 0 0 0 7.0114583 4.2333333 z M 7.540625 4.2333333 A 0.13229166 0.13229166 0 0 0 7.4083333 4.365625 A 0.13229166 0.13229166 0 0 0 7.540625 4.4979167 A 0.13229166 0.13229166 0 0 0 7.6729167 4.365625 A 0.13229166 0.13229166 0 0 0 7.540625 4.2333333 z M 8.0697917 4.2333333 A 0.13229166 0.13229166 0 0 0 7.9375 4.365625 A 0.13229166 0.13229166 0 0 0 8.0697917 4.4979167 A 0.13229166 0.13229166 0 0 0 8.2020833 4.365625 A 0.13229166 0.13229166 0 0 0 8.0697917 4.2333333 z M 8.5989583 4.2333333 A 0.13229166 0.13229166 0 0 0 8.4666667 4.365625 A 0.13229166 0.13229166 0 0 0 8.5989583 4.4979167 A 0.13229166 0.13229166 0 0 0 8.73125 4.365625 A 0.13229166 0.13229166 0 0 0 8.5989583 4.2333333 z M 9.128125 4.2333333 A 0.13229166 0.13229166 0 0 0 8.9958333 4.365625 A 0.13229166 0.13229166 0 0 0 9.128125 4.4979167 A 0.13229166 0.13229166 0 0 0 9.2604167 4.365625 A 0.13229166 0.13229166 0 0 0 9.128125 4.2333333 z M 9.6572917 4.2333333 A 0.13229166 0.13229166 0 0 0 9.525 4.365625 A 0.13229166 0.13229166 0 0 0 9.6572917 4.4979167 A 0.13229166 0.13229166 0 0 0 9.7895833 4.365625 A 0.13229166 0.13229166 0 0 0 9.6572917 4.2333333 z M 10.186458 4.2333333 A 0.13229166 0.13229166 0 0 0 10.054167 4.365625 A 0.13229166 0.13229166 0 0 0 10.186458 4.4979167 A 0.13229166 0.13229166 0 0 0 10.31875 4.365625 A 0.13229166 0.13229166 0 0 0 10.186458 4.2333333 z M 10.715625 4.2333333 A 0.13229166 0.13229166 0 0 0 10.583333 4.365625 A 0.13229166 0.13229166 0 0 0 10.715625 4.4979167 A 0.13229166 0.13229166 0 0 0 10.847917 4.365625 A 0.13229166 0.13229166 0 0 0 10.715625 4.2333333 z M 11.244792 4.2333333 A 0.13229166 0.13229166 0 0 0 11.1125 4.365625 A 0.13229166 0.13229166 0 0 0 11.244792 4.4979167 A 0.13229166 0.13229166 0 0 0 11.377083 4.365625 A 0.13229166 0.13229166 0 0 0 11.244792 4.2333333 z M 11.773958 4.2333333 A 0.13229166 0.13229166 0 0 0 11.641667 4.365625 A 0.13229166 0.13229166 0 0 0 11.773958 4.4979167 A 0.13229166 0.13229166 0 0 0 11.90625 4.365625 A 0.13229166 0.13229166 0 0 0 11.773958 4.2333333 z M 12.303125 4.2333333 A 0.13229166 0.13229166 0 0 0 12.170833 4.365625 A 0.13229166 0.13229166 0 0 0 12.303125 4.4979167 A 0.13229166 0.13229166 0 0 0 12.435417 4.365625 A 0.13229166 0.13229166 0 0 0 12.303125 4.2333333 z M 12.832292 4.2333333 A 0.13229166 0.13229166 0 0 0 12.7 4.365625 A 0.13229166 0.13229166 0 0 0 12.832292 4.4979167 A 0.13229166 0.13229166 0 0 0 12.964583 4.365625 A 0.13229166 0.13229166 0 0 0 12.832292 4.2333333 z M 3.4395833 4.4979167 L 3.4395833 4.7625 L 6.6145833 4.7625 L 6.6145833 4.4979167 L 3.4395833 4.4979167 z M 7.0114583 4.7625 A 0.13229166 0.13229166 0 0 0 6.8791667 4.8947917 A 0.13229166 0.13229166 0 0 0 7.0114583 5.0270833 A 0.13229166 0.13229166 0 0 0 7.14375 4.8947917 A 0.13229166 0.13229166 0 0 0 7.0114583 4.7625 z M 9.7895833 4.7625 A 0.26458332 0.26458332 0 0 0 9.525 5.0270833 A 0.26458332 0.26458332 0 0 0 9.7895833 5.2916667 A 0.26458332 0.26458332 0 0 0 10.054167 5.0270833 A 0.26458332 0.26458332 0 0 0 9.7895833 4.7625 z M 12.832292 4.7625 A 0.13229166 0.13229166 0 0 0 12.7 4.8947917 A 0.13229166 0.13229166 0 0 0 12.832292 5.0270833 A 0.13229166 0.13229166 0 0 0 12.964583 4.8947917 A 0.13229166 0.13229166 0 0 0 12.832292 4.7625 z M 10.142533 4.8177938 C 10.180253 4.8811027 10.200241 4.953392 10.200411 5.0270833 C 10.200108 5.1346572 10.15762 5.2378217 10.082072 5.3144043 C 10.319398 5.3639252 10.567553 5.5442479 10.582817 5.7960286 C 10.576117 5.2802002 10.363914 4.920254 10.142533 4.8177938 z M 3.96875 5.0270833 L 3.96875 5.2916667 L 4.4979167 5.2916667 L 4.4979167 5.0270833 L 3.96875 5.0270833 z M 4.7625 5.0270833 L 4.7625 5.2916667 L 5.2916667 5.2916667 L 5.2916667 5.0270833 L 4.7625 5.0270833 z M 5.55625 5.0270833 L 5.55625 5.2916667 L 6.6145833 5.2916667 L 6.6145833 5.0270833 L 5.55625 5.0270833 z M 7.0114583 5.2916667 A 0.13229166 0.13229166 0 0 0 6.8791667 5.4239583 A 0.13229166 0.13229166 0 0 0 7.0114583 5.55625 A 0.13229166 0.13229166 0 0 0 7.14375 5.4239583 A 0.13229166 0.13229166 0 0 0 7.0114583 5.2916667 z M 12.832292 5.2916667 A 0.13229166 0.13229166 0 0 0 12.7 5.4239583 A 0.13229166 0.13229166 0 0 0 12.832292 5.55625 A 0.13229166 0.13229166 0 0 0 12.964583 5.4239583 A 0.13229166 0.13229166 0 0 0 12.832292 5.2916667 z M 9.921875 5.55625 A 0.39687499 0.39687496 0 0 0 9.525 5.953125 A 0.39687499 0.39687496 0 0 0 9.921875 6.35 A 0.39687499 0.39687496 0 0 0 10.31875 5.953125 A 0.39687499 0.39687496 0 0 0 9.921875 5.55625 z M 7.0114583 5.8208333 A 0.13229166 0.13229166 0 0 0 6.8791667 5.953125 A 0.13229166 0.13229166 0 0 0 7.0114583 6.0854167 A 0.13229166 0.13229166 0 0 0 7.14375 5.953125 A 0.13229166 0.13229166 0 0 0 7.0114583 5.8208333 z M 12.832292 5.8208333 A 0.13229166 0.13229166 0 0 0 12.7 5.953125 A 0.13229166 0.13229166 0 0 0 12.832292 6.0854167 A 0.13229166 0.13229166 0 0 0 12.964583 5.953125 A 0.13229166 0.13229166 0 0 0 12.832292 5.8208333 z M 0.26458333 6.0854167 L 0.26458333 6.35 L 0.52916667 6.35 L 0.52916667 6.0854167 L 0.26458333 6.0854167 z M 0.79375 6.0854167 L 0.79375 6.35 L 1.8520833 6.35 L 1.8520833 6.0854167 L 0.79375 6.0854167 z M 2.1166667 6.0854167 L 2.1166667 6.35 L 2.6458333 6.35 L 2.6458333 6.0854167 L 2.1166667 6.0854167 z M 2.9104167 6.0854167 L 2.9104167 6.35 L 4.4979167 6.35 L 4.4979167 6.0854167 L 2.9104167 6.0854167 z M 4.7625 6.0854167 L 4.7625 6.35 L 5.0270833 6.35 L 5.0270833 6.0854167 L 4.7625 6.0854167 z M 5.2916667 6.0854167 L 5.2916667 6.35 L 6.6145833 6.35 L 6.6145833 6.0854167 L 5.2916667 6.0854167 z M 9.2609334 6.1102214 C 9.2675926 6.62605 9.4798355 6.9859961 9.7012166 7.0884562 C 9.6634992 7.0251483 9.6435079 6.9528585 9.643339 6.8791667 C 9.6436384 6.7715919 9.6861287 6.6684272 9.7616781 6.5918457 C 9.5243537 6.5423245 9.2761973 6.362002 9.2609334 6.1102214 z M 7.0114583 6.35 A 0.13229166 0.13229166 0 0 0 6.8791667 6.4822917 A 0.13229166 0.13229166 0 0 0 7.0114583 6.6145833 A 0.13229166 0.13229166 0 0 0 7.14375 6.4822917 A 0.13229166 0.13229166 0 0 0 7.0114583 6.35 z M 12.832292 6.35 A 0.13229166 0.13229166 0 0 0 12.7 6.4822917 A 0.13229166 0.13229166 0 0 0 12.832292 6.6145833 A 0.13229166 0.13229166 0 0 0 12.964583 6.4822917 A 0.13229166 0.13229166 0 0 0 12.832292 6.35 z M 0.26458333 6.6145833 L 0.26458333 6.8791667 L 1.0583333 6.8791667 L 1.0583333 6.6145833 L 0.26458333 6.6145833 z M 1.3229167 6.6145833 L 1.3229167 6.8791667 L 1.5875 6.8791667 L 1.5875 6.6145833 L 1.3229167 6.6145833 z M 1.8520833 6.6145833 L 1.8520833 6.8791667 L 2.9104167 6.8791667 L 2.9104167 6.6145833 L 1.8520833 6.6145833 z M 3.175 6.6145833 L 3.175 6.8791667 L 3.4395833 6.8791667 L 3.4395833 6.6145833 L 3.175 6.6145833 z M 3.7041667 6.6145833 L 3.7041667 6.8791667 L 5.2916667 6.8791667 L 5.2916667 6.6145833 L 3.7041667 6.6145833 z M 5.55625 6.6145833 L 5.55625 6.8791667 L 6.0854167 6.8791667 L 6.0854167 6.6145833 L 5.55625 6.6145833 z M 6.35 6.6145833 L 6.35 6.8791667 L 6.6145833 6.8791667 L 6.6145833 6.6145833 L 6.35 6.6145833 z M 10.054167 6.6145833 A 0.26458332 0.26458332 0 0 0 10.007141 6.6192342 A 0.26458332 0.26458332 0 0 0 9.9952555 6.621818 A 0.26458332 0.26458332 0 0 0 9.9601156 6.6326701 A 0.26458332 0.26458332 0 0 0 9.950297 6.6362874 A 0.26458332 0.26458332 0 0 0 9.9079224 6.6585083 A 0.26458332 0.26458332 0 0 0 9.9074056 6.6590251 A 0.26458332 0.26458332 0 0 0 9.9048218 6.6610921 A 0.26458332 0.26458332 0 0 0 9.8727824 6.6874471 A 0.26458332 0.26458332 0 0 0 9.8624471 6.6977824 A 0.26458332 0.26458332 0 0 0 9.8360921 6.7298218 A 0.26458332 0.26458332 0 0 0 9.8335083 6.7329224 A 0.26458332 0.26458332 0 0 0 9.8112874 6.775297 A 0.26458332 0.26458332 0 0 0 9.8076701 6.7851156 A 0.26458332 0.26458332 0 0 0 9.796818 6.8202555 A 0.26458332 0.26458332 0 0 0 9.7942342 6.8321411 A 0.26458332 0.26458332 0 0 0 9.7895833 6.8791667 A 0.26458332 0.26458332 0 0 0 9.7942342 6.9261922 A 0.26458332 0.26458332 0 0 0 9.796818 6.9380778 A 0.26458332 0.26458332 0 0 0 9.8076701 6.9732178 A 0.26458332 0.26458332 0 0 0 9.8112874 6.9830363 A 0.26458332 0.26458332 0 0 0 9.8335083 7.025411 A 0.26458332 0.26458332 0 0 0 9.8340251 7.0259277 A 0.26458332 0.26458332 0 0 0 9.8360921 7.0285116 A 0.26458332 0.26458332 0 0 0 9.8624471 7.0605509 A 0.26458332 0.26458332 0 0 0 9.8727824 7.0708862 A 0.26458332 0.26458332 0 0 0 9.9048218 7.0972412 A 0.26458332 0.26458332 0 0 0 9.9079224 7.099825 A 0.26458332 0.26458332 0 0 0 9.950297 7.1220459 A 0.26458332 0.26458332 0 0 0 9.9601156 7.1256632 A 0.26458332 0.26458332 0 0 0 9.9952555 7.1365153 A 0.26458332 0.26458332 0 0 0 10.007141 7.1390991 A 0.26458332 0.26458332 0 0 0 10.054167 7.14375 A 0.26458332 0.26458332 0 0 0 10.101192 7.1390991 A 0.26458332 0.26458332 0 0 0 10.113078 7.1365153 A 0.26458332 0.26458332 0 0 0 10.148218 7.1256632 A 0.26458332 0.26458332 0 0 0 10.158036 7.1220459 A 0.26458332 0.26458332 0 0 0 10.200928 7.0993083 A 0.26458332 0.26458332 0 0 0 10.235551 7.0708862 A 0.26458332 0.26458332 0 0 0 10.245886 7.0605509 A 0.26458332 0.26458332 0 0 0 10.274825 7.025411 A 0.26458332 0.26458332 0 0 0 10.297046 6.9830363 A 0.26458332 0.26458332 0 0 0 10.300663 6.9732178 A 0.26458332 0.26458332 0 0 0 10.311515 6.9380778 A 0.26458332 0.26458332 0 0 0 10.314099 6.9261922 A 0.26458332 0.26458332 0 0 0 10.31875 6.8791667 A 0.26458332 0.26458332 0 0 0 10.318233 6.8610799 A 0.26458332 0.26458332 0 0 0 10.317716 6.8584961 A 0.26458332 0.26458332 0 0 0 10.316166 6.8429932 A 0.26458332 0.26458332 0 0 0 10.315649 6.8404093 A 0.26458332 0.26458332 0 0 0 10.315133 6.836792 A 0.26458332 0.26458332 0 0 0 10.313582 6.8274902 A 0.26458332 0.26458332 0 0 0 10.308931 6.8078532 A 0.26458332 0.26458332 0 0 0 10.307381 6.8021688 A 0.26458332 0.26458332 0 0 0 10.303247 6.7908 A 0.26458332 0.26458332 0 0 0 10.303247 6.7902832 A 0.26458332 0.26458332 0 0 0 10.298079 6.7773641 A 0.26458332 0.26458332 0 0 0 10.297046 6.7737467 A 0.26458332 0.26458332 0 0 0 10.293429 6.7659953 A 0.26458332 0.26458332 0 0 1 10.292912 6.7654785 A 0.26458332 0.26458332 0 0 0 10.289294 6.7572103 A 0.26458332 0.26458332 0 0 0 10.287744 6.7546265 A 0.26458332 0.26458332 0 0 0 10.279993 6.7417074 A 0.26458332 0.26458332 0 0 0 10.266557 6.7215535 A 0.26458332 0.26458332 0 0 0 10.259322 6.7122518 A 0.26458332 0.26458332 0 0 0 10.258805 6.7112183 A 0.26458332 0.26458332 0 0 0 10.247437 6.6988159 A 0.26458332 0.26458332 0 0 0 10.241235 6.692098 A 0.26458332 0.26458332 0 0 0 10.234517 6.6858968 A 0.26458332 0.26458332 0 0 0 10.231934 6.683313 A 0.26458332 0.26458332 0 0 0 10.221082 6.6740112 A 0.26458332 0.26458332 0 0 0 10.21178 6.6667765 A 0.26458332 0.26458332 0 0 0 10.206612 6.6631592 A 0.26458332 0.26458332 0 0 0 10.190076 6.6523071 A 0.26458332 0.26458332 0 0 0 10.176123 6.6440389 A 0.26458332 0.26458332 0 0 0 10.167338 6.6399048 A 0.26458332 0.26458332 0 0 1 10.166821 6.6399048 A 0.26458332 0.26458332 0 0 0 10.155969 6.6352539 A 0.26458332 0.26458332 0 0 0 10.155452 6.6347371 A 0.26458332 0.26458332 0 0 0 10.142533 6.6300863 A 0.26458332 0.26458332 0 0 0 10.131165 6.6259521 A 0.26458332 0.26458332 0 0 0 10.10791 6.6202677 A 0.26458332 0.26458332 0 0 0 10.105843 6.619751 A 0.26458332 0.26458332 0 0 0 10.09034 6.6171672 A 0.26458332 0.26458332 0 0 0 10.088273 6.6166504 A 0.26458332 0.26458332 0 0 0 10.072253 6.6151001 A 0.26458332 0.26458332 0 0 0 10.067086 6.6151001 A 0.26458332 0.26458332 0 0 0 10.054167 6.6145833 z M 7.0114583 6.8791667 A 0.13229166 0.13229166 0 0 0 6.8791667 7.0114583 A 0.13229166 0.13229166 0 0 0 7.0114583 7.14375 A 0.13229166 0.13229166 0 0 0 7.14375 7.0114583 A 0.13229166 0.13229166 0 0 0 7.0114583 6.8791667 z M 12.832292 6.8791667 A 0.13229166 0.13229166 0 0 0 12.7 7.0114583 A 0.13229166 0.13229166 0 0 0 12.832292 7.14375 A 0.13229166 0.13229166 0 0 0 12.964583 7.0114583 A 0.13229166 0.13229166 0 0 0 12.832292 6.8791667 z M 0.26458333 7.14375 L 0.26458333 7.4083333 L 1.8520833 7.4083333 L 1.8520833 7.14375 L 0.26458333 7.14375 z M 2.1166667 7.14375 L 2.1166667 7.4083333 L 3.175 7.4083333 L 3.175 7.14375 L 2.1166667 7.14375 z M 3.4395833 7.14375 L 3.4395833 7.4083333 L 3.7041667 7.4083333 L 3.7041667 7.14375 L 3.4395833 7.14375 z M 3.96875 7.14375 L 3.96875 7.4083333 L 4.7625 7.4083333 L 4.7625 7.14375 L 3.96875 7.14375 z M 5.0270833 7.14375 L 5.0270833 7.4083333 L 6.6145833 7.4083333 L 6.6145833 7.14375 L 5.0270833 7.14375 z M 7.0114583 7.4083333 A 0.13229166 0.13229166 0 0 0 6.8791667 7.540625 A 0.13229166 0.13229166 0 0 0 7.0114583 7.6729167 A 0.13229166 0.13229166 0 0 0 7.14375 7.540625 A 0.13229166 0.13229166 0 0 0 7.0114583 7.4083333 z M 7.540625 7.4083333 A 0.13229166 0.13229166 0 0 0 7.4083333 7.540625 A 0.13229166 0.13229166 0 0 0 7.540625 7.6729167 A 0.13229166 0.13229166 0 0 0 7.6729167 7.540625 A 0.13229166 0.13229166 0 0 0 7.540625 7.4083333 z M 8.0697917 7.4083333 A 0.13229166 0.13229166 0 0 0 7.9375 7.540625 A 0.13229166 0.13229166 0 0 0 8.0697917 7.6729167 A 0.13229166 0.13229166 0 0 0 8.2020833 7.540625 A 0.13229166 0.13229166 0 0 0 8.0697917 7.4083333 z M 8.5989583 7.4083333 A 0.13229166 0.13229166 0 0 0 8.4666667 7.540625 A 0.13229166 0.13229166 0 0 0 8.5989583 7.6729167 A 0.13229166 0.13229166 0 0 0 8.73125 7.540625 A 0.13229166 0.13229166 0 0 0 8.5989583 7.4083333 z M 9.128125 7.4083333 A 0.13229166 0.13229166 0 0 0 8.9958333 7.540625 A 0.13229166 0.13229166 0 0 0 9.128125 7.6729167 A 0.13229166 0.13229166 0 0 0 9.2604167 7.540625 A 0.13229166 0.13229166 0 0 0 9.128125 7.4083333 z M 9.6572917 7.4083333 A 0.13229166 0.13229166 0 0 0 9.525 7.540625 A 0.13229166 0.13229166 0 0 0 9.6572917 7.6729167 A 0.13229166 0.13229166 0 0 0 9.7895833 7.540625 A 0.13229166 0.13229166 0 0 0 9.6572917 7.4083333 z M 10.186458 7.4083333 A 0.13229166 0.13229166 0 0 0 10.054167 7.540625 A 0.13229166 0.13229166 0 0 0 10.186458 7.6729167 A 0.13229166 0.13229166 0 0 0 10.31875 7.540625 A 0.13229166 0.13229166 0 0 0 10.186458 7.4083333 z M 10.715625 7.4083333 A 0.13229166 0.13229166 0 0 0 10.583333 7.540625 A 0.13229166 0.13229166 0 0 0 10.715625 7.6729167 A 0.13229166 0.13229166 0 0 0 10.847917 7.540625 A 0.13229166 0.13229166 0 0 0 10.715625 7.4083333 z M 11.244792 7.4083333 A 0.13229166 0.13229166 0 0 0 11.1125 7.540625 A 0.13229166 0.13229166 0 0 0 11.244792 7.6729167 A 0.13229166 0.13229166 0 0 0 11.377083 7.540625 A 0.13229166 0.13229166 0 0 0 11.244792 7.4083333 z M 11.773958 7.4083333 A 0.13229166 0.13229166 0 0 0 11.641667 7.540625 A 0.13229166 0.13229166 0 0 0 11.773958 7.6729167 A 0.13229166 0.13229166 0 0 0 11.90625 7.540625 A 0.13229166 0.13229166 0 0 0 11.773958 7.4083333 z M 12.303125 7.4083333 A 0.13229166 0.13229166 0 0 0 12.170833 7.540625 A 0.13229166 0.13229166 0 0 0 12.303125 7.6729167 A 0.13229166 0.13229166 0 0 0 12.435417 7.540625 A 0.13229166 0.13229166 0 0 0 12.303125 7.4083333 z M 12.832292 7.4083333 A 0.13229166 0.13229166 0 0 0 12.7 7.540625 A 0.13229166 0.13229166 0 0 0 12.832292 7.6729167 A 0.13229166 0.13229166 0 0 0 12.964583 7.540625 A 0.13229166 0.13229166 0 0 0 12.832292 7.4083333 z " />
  </g>
</svg>
